<svg width="1920" height="275" viewBox="0 0 1920 275" fill="none" xmlns="http://www.w3.org/2000/svg">
<g clip-path="url(#clip0_1_932)">
<ellipse cx="21.1572" cy="18.7957" rx="6.92635" ry="6.92635" fill="#153556"/>
<ellipse cx="54.4202" cy="18.7957" rx="6.92635" ry="6.92635" fill="#153556"/>
<ellipse cx="87.6513" cy="18.7957" rx="6.92635" ry="6.92635" fill="#153556"/>
<ellipse cx="120.914" cy="18.7955" rx="6.92635" ry="6.92635" fill="#153556"/>
<ellipse cx="154.145" cy="18.7957" rx="6.92635" ry="6.92635" fill="#153556"/>
<ellipse cx="187.409" cy="18.7951" rx="6.92635" ry="6.92635" fill="#153556"/>
<ellipse cx="220.639" cy="18.7957" rx="6.92635" ry="6.92635" fill="#153556"/>
<ellipse cx="253.903" cy="18.7953" rx="6.92635" ry="6.92635" fill="#153556"/>
<ellipse cx="287.134" cy="18.7957" rx="6.92635" ry="6.92635" fill="#153556"/>
<ellipse cx="320.397" cy="18.7953" rx="6.92635" ry="6.92635" fill="#153556"/>
<ellipse cx="353.628" cy="18.7954" rx="6.92635" ry="6.92635" fill="#153556"/>
<ellipse cx="386.891" cy="18.7953" rx="6.92635" ry="6.92635" fill="#153556"/>
<ellipse cx="420.122" cy="18.7954" rx="6.92635" ry="6.92635" fill="#153556"/>
<ellipse cx="453.385" cy="18.7953" rx="6.92635" ry="6.92635" fill="#153556"/>
<ellipse cx="486.616" cy="18.7954" rx="6.92635" ry="6.92635" fill="#153556"/>
<ellipse cx="519.847" cy="18.7953" rx="6.92635" ry="6.92635" fill="#153556"/>
<ellipse cx="553.11" cy="18.7954" rx="6.92635" ry="6.92635" fill="#153556"/>
<ellipse cx="586.373" cy="18.7953" rx="6.92635" ry="6.92635" fill="#153556"/>
<ellipse cx="619.604" cy="18.7953" rx="6.92635" ry="6.92635" fill="#153556"/>
<ellipse cx="21.1572" cy="52.0417" rx="6.92635" ry="6.92635" fill="#153556"/>
<ellipse cx="54.4202" cy="52.0417" rx="6.92635" ry="6.92635" fill="#153556"/>
<ellipse cx="87.6513" cy="52.0417" rx="6.92635" ry="6.92635" fill="#153556"/>
<ellipse cx="120.914" cy="52.0416" rx="6.92635" ry="6.92635" fill="#153556"/>
<ellipse cx="154.145" cy="52.0417" rx="6.92635" ry="6.92635" fill="#153556"/>
<ellipse cx="187.409" cy="52.0412" rx="6.92635" ry="6.92635" fill="#153556"/>
<ellipse cx="220.639" cy="52.0417" rx="6.92635" ry="6.92635" fill="#153556"/>
<ellipse cx="253.903" cy="52.0412" rx="6.92635" ry="6.92635" fill="#153556"/>
<ellipse cx="287.134" cy="52.0417" rx="6.92635" ry="6.92635" fill="#153556"/>
<ellipse cx="320.397" cy="52.0412" rx="6.92635" ry="6.92635" fill="#153556"/>
<ellipse cx="353.628" cy="52.0417" rx="6.92635" ry="6.92635" fill="#153556"/>
<ellipse cx="386.891" cy="52.0412" rx="6.92635" ry="6.92635" fill="#153556"/>
<ellipse cx="420.122" cy="52.042" rx="6.92635" ry="6.92635" fill="#153556"/>
<ellipse cx="453.385" cy="52.0412" rx="6.92635" ry="6.92635" fill="#153556"/>
<ellipse cx="486.616" cy="52.042" rx="6.92635" ry="6.92635" fill="#153556"/>
<ellipse cx="519.847" cy="52.0412" rx="6.92635" ry="6.92635" fill="#153556"/>
<ellipse cx="553.11" cy="52.0418" rx="6.92635" ry="6.92635" fill="#153556"/>
<ellipse cx="586.373" cy="52.0412" rx="6.92635" ry="6.92635" fill="#153556"/>
<ellipse cx="619.604" cy="52.042" rx="6.92635" ry="6.92635" fill="#153556"/>
<ellipse cx="21.1572" cy="85.2885" rx="6.92635" ry="6.92635" fill="#153556"/>
<ellipse cx="54.4202" cy="85.2885" rx="6.92635" ry="6.92635" fill="#153556"/>
<ellipse cx="87.6513" cy="85.2885" rx="6.92635" ry="6.92635" fill="#153556"/>
<ellipse cx="120.914" cy="85.2887" rx="6.92635" ry="6.92635" fill="#153556"/>
<ellipse cx="154.145" cy="85.2885" rx="6.92635" ry="6.92635" fill="#153556"/>
<ellipse cx="187.409" cy="85.2882" rx="6.92635" ry="6.92635" fill="#153556"/>
<ellipse cx="220.639" cy="85.2885" rx="6.92635" ry="6.92635" fill="#153556"/>
<ellipse cx="253.903" cy="85.288" rx="6.92635" ry="6.92635" fill="#153556"/>
<ellipse cx="287.134" cy="85.2885" rx="6.92635" ry="6.92635" fill="#153556"/>
<ellipse cx="320.397" cy="85.288" rx="6.92635" ry="6.92635" fill="#153556"/>
<ellipse cx="353.628" cy="85.2885" rx="6.92635" ry="6.92635" fill="#153556"/>
<ellipse cx="386.891" cy="85.288" rx="6.92635" ry="6.92635" fill="#153556"/>
<ellipse cx="420.122" cy="85.288" rx="6.92635" ry="6.92635" fill="#153556"/>
<ellipse cx="453.385" cy="85.288" rx="6.92635" ry="6.92635" fill="#153556"/>
<ellipse cx="486.616" cy="85.2879" rx="6.92635" ry="6.92635" fill="#153556"/>
<ellipse cx="519.847" cy="85.288" rx="6.92635" ry="6.92635" fill="#153556"/>
<ellipse cx="553.11" cy="85.2883" rx="6.92635" ry="6.92635" fill="#153556"/>
<ellipse cx="586.373" cy="85.288" rx="6.92635" ry="6.92635" fill="#153556"/>
<ellipse cx="619.604" cy="85.2883" rx="6.92635" ry="6.92635" fill="#153556"/>
<ellipse cx="21.1572" cy="118.535" rx="6.92635" ry="6.92635" fill="#153556"/>
<ellipse cx="54.4202" cy="118.535" rx="6.92635" ry="6.92635" fill="#153556"/>
<ellipse cx="87.6513" cy="118.535" rx="6.92635" ry="6.92635" fill="#153556"/>
<ellipse cx="120.914" cy="118.535" rx="6.92635" ry="6.92635" fill="#153556"/>
<ellipse cx="154.145" cy="118.535" rx="6.92635" ry="6.92635" fill="#153556"/>
<ellipse cx="187.409" cy="118.535" rx="6.92635" ry="6.92635" fill="#153556"/>
<ellipse cx="220.639" cy="118.535" rx="6.92635" ry="6.92635" fill="#153556"/>
<ellipse cx="253.903" cy="118.535" rx="6.92635" ry="6.92635" fill="#153556"/>
<ellipse cx="287.134" cy="118.535" rx="6.92635" ry="6.92635" fill="#153556"/>
<ellipse cx="320.397" cy="118.535" rx="6.92635" ry="6.92635" fill="#153556"/>
<ellipse cx="353.628" cy="118.536" rx="6.92635" ry="6.92635" fill="#153556"/>
<ellipse cx="386.891" cy="118.535" rx="6.92635" ry="6.92635" fill="#153556"/>
<ellipse cx="420.122" cy="118.535" rx="6.92635" ry="6.92635" fill="#153556"/>
<ellipse cx="453.385" cy="118.535" rx="6.92635" ry="6.92635" fill="#153556"/>
<ellipse cx="486.616" cy="118.535" rx="6.92635" ry="6.92635" fill="#153556"/>
<ellipse cx="519.847" cy="118.535" rx="6.92635" ry="6.92635" fill="#153556"/>
<ellipse cx="553.11" cy="118.535" rx="6.92635" ry="6.92635" fill="#153556"/>
<ellipse cx="586.373" cy="118.535" rx="6.92635" ry="6.92635" fill="#153556"/>
<ellipse cx="619.604" cy="118.535" rx="6.92635" ry="6.92635" fill="#153556"/>
<ellipse cx="21.1572" cy="151.782" rx="6.92635" ry="6.92635" fill="#153556"/>
<ellipse cx="54.4202" cy="151.781" rx="6.92635" ry="6.92635" fill="#153556"/>
<ellipse cx="87.6513" cy="151.782" rx="6.92635" ry="6.92635" fill="#153556"/>
<ellipse cx="120.914" cy="151.782" rx="6.92635" ry="6.92635" fill="#153556"/>
<ellipse cx="154.145" cy="151.781" rx="6.92635" ry="6.92635" fill="#153556"/>
<ellipse cx="187.409" cy="151.782" rx="6.92635" ry="6.92635" fill="#153556"/>
<ellipse cx="220.639" cy="151.781" rx="6.92635" ry="6.92635" fill="#153556"/>
<ellipse cx="253.903" cy="151.782" rx="6.92635" ry="6.92635" fill="#153556"/>
<ellipse cx="287.134" cy="151.781" rx="6.92635" ry="6.92635" fill="#153556"/>
<ellipse cx="320.397" cy="151.782" rx="6.92635" ry="6.92635" fill="#153556"/>
<ellipse cx="353.628" cy="151.781" rx="6.92635" ry="6.92635" fill="#153556"/>
<ellipse cx="386.891" cy="151.782" rx="6.92635" ry="6.92635" fill="#153556"/>
<ellipse cx="420.122" cy="151.781" rx="6.92635" ry="6.92635" fill="#153556"/>
<ellipse cx="453.385" cy="151.782" rx="6.92635" ry="6.92635" fill="#153556"/>
<ellipse cx="486.616" cy="151.781" rx="6.92635" ry="6.92635" fill="#153556"/>
<ellipse cx="519.847" cy="151.782" rx="6.92635" ry="6.92635" fill="#153556"/>
<ellipse cx="553.11" cy="151.781" rx="6.92635" ry="6.92635" fill="#153556"/>
<ellipse cx="586.373" cy="151.782" rx="6.92635" ry="6.92635" fill="#153556"/>
<ellipse cx="619.604" cy="151.781" rx="6.92635" ry="6.92635" fill="#153556"/>
<ellipse cx="21.1572" cy="185.029" rx="6.92635" ry="6.92635" fill="#153556"/>
<ellipse cx="54.4202" cy="185.027" rx="6.92635" ry="6.92635" fill="#153556"/>
<ellipse cx="87.6513" cy="185.029" rx="6.92635" ry="6.92635" fill="#153556"/>
<ellipse cx="120.914" cy="185.028" rx="6.92635" ry="6.92635" fill="#153556"/>
<ellipse cx="154.145" cy="185.027" rx="6.92635" ry="6.92635" fill="#153556"/>
<ellipse cx="187.409" cy="185.029" rx="6.92635" ry="6.92635" fill="#153556"/>
<ellipse cx="220.639" cy="185.027" rx="6.92635" ry="6.92635" fill="#153556"/>
<ellipse cx="253.903" cy="185.029" rx="6.92635" ry="6.92635" fill="#153556"/>
<ellipse cx="287.134" cy="185.027" rx="6.92635" ry="6.92635" fill="#153556"/>
<ellipse cx="320.397" cy="185.029" rx="6.92635" ry="6.92635" fill="#153556"/>
<ellipse cx="353.628" cy="185.027" rx="6.92635" ry="6.92635" fill="#153556"/>
<ellipse cx="386.891" cy="185.029" rx="6.92635" ry="6.92635" fill="#153556"/>
<ellipse cx="420.122" cy="185.028" rx="6.92635" ry="6.92635" fill="#153556"/>
<ellipse cx="453.385" cy="185.029" rx="6.92635" ry="6.92635" fill="#153556"/>
<ellipse cx="486.616" cy="185.028" rx="6.92635" ry="6.92635" fill="#153556"/>
<ellipse cx="519.847" cy="185.029" rx="6.92635" ry="6.92635" fill="#153556"/>
<ellipse cx="553.11" cy="185.028" rx="6.92635" ry="6.92635" fill="#153556"/>
<ellipse cx="586.373" cy="185.029" rx="6.92635" ry="6.92635" fill="#153556"/>
<ellipse cx="619.604" cy="185.028" rx="6.92635" ry="6.92635" fill="#153556"/>
<ellipse cx="1311.46" cy="90.0539" rx="6.92635" ry="6.92635" fill="#153556"/>
<ellipse cx="1344.69" cy="90.0546" rx="6.92635" ry="6.92635" fill="#153556"/>
<ellipse cx="1377.95" cy="90.056" rx="6.92635" ry="6.92635" fill="#153556"/>
<ellipse cx="1411.18" cy="90.0546" rx="6.92635" ry="6.92635" fill="#153556"/>
<ellipse cx="1444.44" cy="90.056" rx="6.92635" ry="6.92635" fill="#153556"/>
<ellipse cx="1477.67" cy="90.0546" rx="6.92635" ry="6.92635" fill="#153556"/>
<ellipse cx="1510.94" cy="90.0565" rx="6.92635" ry="6.92635" fill="#153556"/>
<ellipse cx="1544.17" cy="90.0546" rx="6.92635" ry="6.92635" fill="#153556"/>
<ellipse cx="1577.43" cy="90.0551" rx="6.92635" ry="6.92635" fill="#153556"/>
<ellipse cx="1610.66" cy="90.0546" rx="6.92635" ry="6.92635" fill="#153556"/>
<ellipse cx="1643.93" cy="90.0551" rx="6.92635" ry="6.92635" fill="#153556"/>
<ellipse cx="1677.16" cy="90.0546" rx="6.92635" ry="6.92635" fill="#153556"/>
<ellipse cx="1710.42" cy="90.0551" rx="6.92635" ry="6.92635" fill="#153556"/>
<ellipse cx="1743.65" cy="90.0551" rx="6.92635" ry="6.92635" fill="#153556"/>
<ellipse cx="1776.91" cy="90.055" rx="6.92635" ry="6.92635" fill="#153556"/>
<ellipse cx="1810.15" cy="90.0551" rx="6.92635" ry="6.92635" fill="#153556"/>
<ellipse cx="1843.41" cy="90.0545" rx="6.92635" ry="6.92635" fill="#153556"/>
<ellipse cx="1876.64" cy="90.0551" rx="6.92635" ry="6.92635" fill="#153556"/>
<ellipse cx="1909.9" cy="90.0546" rx="6.92635" ry="6.92635" fill="#153556"/>
<ellipse cx="1311.46" cy="123.302" rx="6.92635" ry="6.92635" fill="#153556"/>
<ellipse cx="1344.69" cy="123.301" rx="6.92635" ry="6.92635" fill="#153556"/>
<ellipse cx="1377.95" cy="123.302" rx="6.92635" ry="6.92635" fill="#153556"/>
<ellipse cx="1411.18" cy="123.301" rx="6.92635" ry="6.92635" fill="#153556"/>
<ellipse cx="1444.44" cy="123.303" rx="6.92635" ry="6.92635" fill="#153556"/>
<ellipse cx="1477.67" cy="123.301" rx="6.92635" ry="6.92635" fill="#153556"/>
<ellipse cx="1510.94" cy="123.302" rx="6.92635" ry="6.92635" fill="#153556"/>
<ellipse cx="1544.17" cy="123.301" rx="6.92635" ry="6.92635" fill="#153556"/>
<ellipse cx="1577.43" cy="123.302" rx="6.92635" ry="6.92635" fill="#153556"/>
<ellipse cx="1610.66" cy="123.301" rx="6.92635" ry="6.92635" fill="#153556"/>
<ellipse cx="1643.93" cy="123.302" rx="6.92635" ry="6.92635" fill="#153556"/>
<ellipse cx="1677.16" cy="123.302" rx="6.92635" ry="6.92635" fill="#153556"/>
<ellipse cx="1710.42" cy="123.302" rx="6.92635" ry="6.92635" fill="#153556"/>
<ellipse cx="1743.65" cy="123.302" rx="6.92635" ry="6.92635" fill="#153556"/>
<ellipse cx="1776.91" cy="123.302" rx="6.92635" ry="6.92635" fill="#153556"/>
<ellipse cx="1810.15" cy="123.302" rx="6.92635" ry="6.92635" fill="#153556"/>
<ellipse cx="1843.41" cy="123.301" rx="6.92635" ry="6.92635" fill="#153556"/>
<ellipse cx="1876.64" cy="123.302" rx="6.92635" ry="6.92635" fill="#153556"/>
<ellipse cx="1909.9" cy="123.301" rx="6.92635" ry="6.92635" fill="#153556"/>
<ellipse cx="1311.46" cy="156.549" rx="6.92635" ry="6.92635" fill="#153556"/>
<ellipse cx="1344.69" cy="156.548" rx="6.92635" ry="6.92635" fill="#153556"/>
<ellipse cx="1377.95" cy="156.549" rx="6.92635" ry="6.92635" fill="#153556"/>
<ellipse cx="1411.18" cy="156.548" rx="6.92635" ry="6.92635" fill="#153556"/>
<ellipse cx="1444.44" cy="156.549" rx="6.92635" ry="6.92635" fill="#153556"/>
<ellipse cx="1477.67" cy="156.548" rx="6.92635" ry="6.92635" fill="#153556"/>
<ellipse cx="1510.94" cy="156.549" rx="6.92635" ry="6.92635" fill="#153556"/>
<ellipse cx="1544.17" cy="156.548" rx="6.92635" ry="6.92635" fill="#153556"/>
<ellipse cx="1577.43" cy="156.548" rx="6.92635" ry="6.92635" fill="#153556"/>
<ellipse cx="1610.66" cy="156.548" rx="6.92635" ry="6.92635" fill="#153556"/>
<ellipse cx="1643.93" cy="156.549" rx="6.92635" ry="6.92635" fill="#153556"/>
<ellipse cx="1677.16" cy="156.549" rx="6.92635" ry="6.92635" fill="#153556"/>
<ellipse cx="1710.42" cy="156.549" rx="6.92635" ry="6.92635" fill="#153556"/>
<ellipse cx="1743.65" cy="156.549" rx="6.92635" ry="6.92635" fill="#153556"/>
<ellipse cx="1776.91" cy="156.549" rx="6.92635" ry="6.92635" fill="#153556"/>
<ellipse cx="1810.15" cy="156.549" rx="6.92635" ry="6.92635" fill="#153556"/>
<ellipse cx="1843.41" cy="156.548" rx="6.92635" ry="6.92635" fill="#153556"/>
<ellipse cx="1876.64" cy="156.549" rx="6.92635" ry="6.92635" fill="#153556"/>
<ellipse cx="1909.9" cy="156.548" rx="6.92635" ry="6.92635" fill="#153556"/>
<ellipse cx="1311.46" cy="189.795" rx="6.92635" ry="6.92635" fill="#153556"/>
<ellipse cx="1344.69" cy="189.795" rx="6.92635" ry="6.92635" fill="#153556"/>
<ellipse cx="1377.95" cy="189.795" rx="6.92635" ry="6.92635" fill="#153556"/>
<ellipse cx="1411.18" cy="189.795" rx="6.92635" ry="6.92635" fill="#153556"/>
<ellipse cx="1444.44" cy="189.796" rx="6.92635" ry="6.92635" fill="#153556"/>
<ellipse cx="1477.67" cy="189.795" rx="6.92635" ry="6.92635" fill="#153556"/>
<ellipse cx="1510.94" cy="189.796" rx="6.92635" ry="6.92635" fill="#153556"/>
<ellipse cx="1544.17" cy="189.795" rx="6.92635" ry="6.92635" fill="#153556"/>
<ellipse cx="1577.43" cy="189.795" rx="6.92635" ry="6.92635" fill="#153556"/>
<ellipse cx="1610.66" cy="189.795" rx="6.92635" ry="6.92635" fill="#153556"/>
<ellipse cx="1643.93" cy="189.796" rx="6.92635" ry="6.92635" fill="#153556"/>
<ellipse cx="1677.16" cy="189.796" rx="6.92635" ry="6.92635" fill="#153556"/>
<ellipse cx="1710.42" cy="189.796" rx="6.92635" ry="6.92635" fill="#153556"/>
<ellipse cx="1743.65" cy="189.796" rx="6.92635" ry="6.92635" fill="#153556"/>
<ellipse cx="1776.91" cy="189.796" rx="6.92635" ry="6.92635" fill="#153556"/>
<ellipse cx="1810.15" cy="189.796" rx="6.92635" ry="6.92635" fill="#153556"/>
<ellipse cx="1843.41" cy="189.795" rx="6.92635" ry="6.92635" fill="#153556"/>
<ellipse cx="1876.64" cy="189.796" rx="6.92635" ry="6.92635" fill="#153556"/>
<ellipse cx="1909.9" cy="189.795" rx="6.92635" ry="6.92635" fill="#153556"/>
<ellipse cx="1311.46" cy="223.042" rx="6.92635" ry="6.92635" fill="#153556"/>
<ellipse cx="1344.69" cy="223.041" rx="6.92635" ry="6.92635" fill="#153556"/>
<ellipse cx="1377.95" cy="223.041" rx="6.92635" ry="6.92635" fill="#153556"/>
<ellipse cx="1411.18" cy="223.041" rx="6.92635" ry="6.92635" fill="#153556"/>
<ellipse cx="1444.44" cy="223.042" rx="6.92635" ry="6.92635" fill="#153556"/>
<ellipse cx="1477.67" cy="223.041" rx="6.92635" ry="6.92635" fill="#153556"/>
<ellipse cx="1510.94" cy="223.042" rx="6.92635" ry="6.92635" fill="#153556"/>
<ellipse cx="1544.17" cy="223.041" rx="6.92635" ry="6.92635" fill="#153556"/>
<ellipse cx="1577.43" cy="223.042" rx="6.92635" ry="6.92635" fill="#153556"/>
<ellipse cx="1610.66" cy="223.041" rx="6.92635" ry="6.92635" fill="#153556"/>
<ellipse cx="1643.93" cy="223.042" rx="6.92635" ry="6.92635" fill="#153556"/>
<ellipse cx="1677.16" cy="223.042" rx="6.92635" ry="6.92635" fill="#153556"/>
<ellipse cx="1710.42" cy="223.042" rx="6.92635" ry="6.92635" fill="#153556"/>
<ellipse cx="1743.65" cy="223.042" rx="6.92635" ry="6.92635" fill="#153556"/>
<ellipse cx="1776.91" cy="223.042" rx="6.92635" ry="6.92635" fill="#153556"/>
<ellipse cx="1810.15" cy="223.042" rx="6.92635" ry="6.92635" fill="#153556"/>
<ellipse cx="1843.41" cy="223.041" rx="6.92635" ry="6.92635" fill="#153556"/>
<ellipse cx="1876.64" cy="223.042" rx="6.92635" ry="6.92635" fill="#153556"/>
<ellipse cx="1909.9" cy="223.041" rx="6.92635" ry="6.92635" fill="#153556"/>
<ellipse cx="1311.46" cy="256.288" rx="6.92635" ry="6.92635" fill="#153556"/>
<ellipse cx="1344.69" cy="256.288" rx="6.92635" ry="6.92635" fill="#153556"/>
<ellipse cx="1377.95" cy="256.288" rx="6.92635" ry="6.92635" fill="#153556"/>
<ellipse cx="1411.18" cy="256.288" rx="6.92635" ry="6.92635" fill="#153556"/>
<ellipse cx="1444.44" cy="256.288" rx="6.92635" ry="6.92635" fill="#153556"/>
<ellipse cx="1477.67" cy="256.288" rx="6.92635" ry="6.92635" fill="#153556"/>
<ellipse cx="1510.94" cy="256.289" rx="6.92635" ry="6.92635" fill="#153556"/>
<ellipse cx="1544.17" cy="256.288" rx="6.92635" ry="6.92635" fill="#153556"/>
<ellipse cx="1577.43" cy="256.289" rx="6.92635" ry="6.92635" fill="#153556"/>
<ellipse cx="1610.66" cy="256.288" rx="6.92635" ry="6.92635" fill="#153556"/>
<ellipse cx="1643.93" cy="256.289" rx="6.92635" ry="6.92635" fill="#153556"/>
<ellipse cx="1677.16" cy="256.289" rx="6.92635" ry="6.92635" fill="#153556"/>
<ellipse cx="1710.42" cy="256.289" rx="6.92635" ry="6.92635" fill="#153556"/>
<ellipse cx="1743.65" cy="256.289" rx="6.92635" ry="6.92635" fill="#153556"/>
<ellipse cx="1776.91" cy="256.289" rx="6.92635" ry="6.92635" fill="#153556"/>
<ellipse cx="1810.15" cy="256.289" rx="6.92635" ry="6.92635" fill="#153556"/>
<ellipse cx="1843.41" cy="256.288" rx="6.92635" ry="6.92635" fill="#153556"/>
<ellipse cx="1876.64" cy="256.289" rx="6.92635" ry="6.92635" fill="#153556"/>
<ellipse cx="1909.9" cy="256.288" rx="6.92635" ry="6.92635" fill="#153556"/>
</g>
<defs>
<clipPath id="clip0_1_932">
<rect width="1920" height="274" fill="white" transform="translate(0 0.5)"/>
</clipPath>
</defs>
</svg>
