<svg width="24" height="25" viewBox="0 0 24 25" fill="none" xmlns="http://www.w3.org/2000/svg">
<path d="M23.2974 11.473H21.2433V9.41891H19.1892V11.473H17.1352V13.527H19.1892V15.5811H21.2433V13.527H23.2974M7.89191 11.473V13.9378H12C11.7946 14.9649 10.7676 17.0189 7.89191 17.0189C5.42704 17.0189 3.47568 14.9649 3.47568 12.5C3.47568 10.0351 5.42704 7.98107 7.89191 7.98107C9.32975 7.98107 10.2541 8.59729 10.7676 9.1108L12.7189 7.26215C11.4865 6.02971 9.84326 5.31079 7.89191 5.31079C3.88649 5.31079 0.702698 8.49458 0.702698 12.5C0.702698 16.5054 3.88649 19.6892 7.89191 19.6892C12 19.6892 14.773 16.8135 14.773 12.7054C14.773 12.1919 14.773 11.8838 14.6703 11.473H7.89191Z" fill="white"/>
</svg>
