<?xml version="1.0" encoding="UTF-8" standalone="no"?>
<svg
   width="20px"
   height="20px"
   viewBox="0 0 20 20"
   fill="none"
   version="1.1"
   id="svg4"
   sodipodi:docname="akn02-0aq2v.svg"
   xmlns:inkscape="http://www.inkscape.org/namespaces/inkscape"
   xmlns:sodipodi="http://sodipodi.sourceforge.net/DTD/sodipodi-0.dtd"
   xmlns="http://www.w3.org/2000/svg"
   xmlns:svg="http://www.w3.org/2000/svg">
  <defs
     id="defs8" />
  <sodipodi:namedview
     id="namedview6"
     pagecolor="#ffffff"
     bordercolor="#000000"
     borderopacity="0.25"
     inkscape:showpageshadow="2"
     inkscape:pageopacity="0.0"
     inkscape:pagecheckerboard="0"
     inkscape:deskcolor="#d1d1d1" />
  <path
     d="M68.5598 32.4892C65.0543 30.8742 61.2952 29.6843 57.3648 29.0029C57.2932 28.9897 57.2217 29.0226 57.1848 29.0883C56.7014 29.9517 56.1658 31.078 55.7908 31.9632C51.5634 31.3278 47.3577 31.3278 43.217 31.9632C42.8419 31.0583 42.2869 29.9517 41.8013 29.0883C41.7644 29.0248 41.6929 28.9919 41.6214 29.0029C37.6931 29.6822 33.934 30.872 30.4263 32.4892C30.3959 32.5023 30.3699 32.5242 30.3526 32.5527C23.2224 43.2482 21.2691 53.6809 22.2273 63.9842C22.2316 64.0346 22.2598 64.0828 22.2988 64.1134C27.0032 67.5822 31.5602 69.688 36.0325 71.0838C36.1041 71.1058 36.1799 71.0795 36.2255 71.0203C37.2834 69.5697 38.2265 68.0402 39.035 66.4318C39.0828 66.3376 39.0372 66.2258 38.9397 66.1886C37.4438 65.6188 36.0195 64.9242 34.6494 64.1354C34.541 64.0718 34.5323 63.9162 34.632 63.8417C34.9204 63.6248 35.2088 63.3991 35.4841 63.1712C35.5339 63.1296 35.6033 63.1208 35.6618 63.1471C44.6629 67.2733 54.4077 67.2733 63.3026 63.1471C63.3612 63.1186 63.4306 63.1274 63.4826 63.169C63.7579 63.3969 64.0463 63.6248 64.3368 63.8417C64.4365 63.9162 64.4299 64.0718 64.3216 64.1354C62.9515 64.9395 61.5271 65.6188 60.0291 66.1864C59.9316 66.2236 59.8882 66.3376 59.9359 66.4318C60.7618 68.038 61.7049 69.5675 62.7433 71.0181C62.7867 71.0795 62.8647 71.1058 62.9363 71.0838C67.4303 69.688 71.9873 67.5822 76.6916 64.1134C76.7328 64.0828 76.7589 64.0368 76.7632 63.9864C77.91 52.0746 74.8424 41.7275 68.6313 32.5549C68.6161 32.5242 68.5902 32.5023 68.5598 32.4892ZM40.3792 57.7105C37.6693 57.7105 35.4363 55.2126 35.4363 52.1448C35.4363 49.077 37.626 46.579 40.3792 46.579C43.1541 46.579 45.3654 49.0989 45.322 52.1448C45.322 55.2126 43.1324 57.7105 40.3792 57.7105ZM58.6546 57.7105C55.9448 57.7105 53.7118 55.2126 53.7118 52.1448C53.7118 49.077 55.9014 46.579 58.6546 46.579C61.4296 46.579 63.6408 49.0989 63.5975 52.1448C63.5975 55.2126 61.4296 57.7105 58.6546 57.7105Z"
     fill="black"
     id="path2" />
</svg>
