<svg width="1920" height="274" viewBox="0 0 1920 274" fill="none" xmlns="http://www.w3.org/2000/svg">
<g clip-path="url(#clip0_1_152)">
<ellipse cx="18.1573" cy="13.5486" rx="6.92635" ry="6.92635" fill="#E8E8E8"/>
<ellipse cx="51.4202" cy="13.5486" rx="6.92635" ry="6.92635" fill="#E8E8E8"/>
<ellipse cx="84.6513" cy="13.5486" rx="6.92635" ry="6.92635" fill="#E8E8E8"/>
<ellipse cx="117.914" cy="13.549" rx="6.92635" ry="6.92635" fill="#E8E8E8"/>
<ellipse cx="151.145" cy="13.5486" rx="6.92635" ry="6.92635" fill="#E8E8E8"/>
<ellipse cx="184.409" cy="13.5483" rx="6.92635" ry="6.92635" fill="#E8E8E8"/>
<ellipse cx="217.639" cy="13.5486" rx="6.92635" ry="6.92635" fill="#E8E8E8"/>
<ellipse cx="250.903" cy="13.5483" rx="6.92635" ry="6.92635" fill="#E8E8E8"/>
<ellipse cx="284.134" cy="13.5486" rx="6.92635" ry="6.92635" fill="#E8E8E8"/>
<ellipse cx="317.397" cy="13.5483" rx="6.92635" ry="6.92635" fill="#E8E8E8"/>
<ellipse cx="350.628" cy="13.5486" rx="6.92635" ry="6.92635" fill="#E8E8E8"/>
<ellipse cx="383.891" cy="13.5483" rx="6.92635" ry="6.92635" fill="#E8E8E8"/>
<ellipse cx="417.122" cy="13.5486" rx="6.92635" ry="6.92635" fill="#E8E8E8"/>
<ellipse cx="450.385" cy="13.5483" rx="6.92635" ry="6.92635" fill="#E8E8E8"/>
<ellipse cx="483.616" cy="13.5484" rx="6.92635" ry="6.92635" fill="#E8E8E8"/>
<ellipse cx="516.847" cy="13.5483" rx="6.92635" ry="6.92635" fill="#E8E8E8"/>
<ellipse cx="550.11" cy="13.5488" rx="6.92635" ry="6.92635" fill="#E8E8E8"/>
<ellipse cx="583.373" cy="13.5483" rx="6.92635" ry="6.92635" fill="#E8E8E8"/>
<ellipse cx="616.604" cy="13.5487" rx="6.92635" ry="6.92635" fill="#E8E8E8"/>
<ellipse cx="18.1573" cy="46.7957" rx="6.92635" ry="6.92635" fill="#E8E8E8"/>
<ellipse cx="51.4202" cy="46.7957" rx="6.92635" ry="6.92635" fill="#E8E8E8"/>
<ellipse cx="84.6513" cy="46.7957" rx="6.92635" ry="6.92635" fill="#E8E8E8"/>
<ellipse cx="117.914" cy="46.7956" rx="6.92635" ry="6.92635" fill="#E8E8E8"/>
<ellipse cx="151.145" cy="46.7957" rx="6.92635" ry="6.92635" fill="#E8E8E8"/>
<ellipse cx="184.409" cy="46.7951" rx="6.92635" ry="6.92635" fill="#E8E8E8"/>
<ellipse cx="217.639" cy="46.7957" rx="6.92635" ry="6.92635" fill="#E8E8E8"/>
<ellipse cx="250.903" cy="46.7953" rx="6.92635" ry="6.92635" fill="#E8E8E8"/>
<ellipse cx="284.134" cy="46.7957" rx="6.92635" ry="6.92635" fill="#E8E8E8"/>
<ellipse cx="317.397" cy="46.7953" rx="6.92635" ry="6.92635" fill="#E8E8E8"/>
<ellipse cx="350.628" cy="46.7954" rx="6.92635" ry="6.92635" fill="#E8E8E8"/>
<ellipse cx="383.891" cy="46.7953" rx="6.92635" ry="6.92635" fill="#E8E8E8"/>
<ellipse cx="417.122" cy="46.7954" rx="6.92635" ry="6.92635" fill="#E8E8E8"/>
<ellipse cx="450.385" cy="46.7953" rx="6.92635" ry="6.92635" fill="#E8E8E8"/>
<ellipse cx="483.616" cy="46.7954" rx="6.92635" ry="6.92635" fill="#E8E8E8"/>
<ellipse cx="516.847" cy="46.7953" rx="6.92635" ry="6.92635" fill="#E8E8E8"/>
<ellipse cx="550.11" cy="46.7954" rx="6.92635" ry="6.92635" fill="#E8E8E8"/>
<ellipse cx="583.373" cy="46.7953" rx="6.92635" ry="6.92635" fill="#E8E8E8"/>
<ellipse cx="616.604" cy="46.7953" rx="6.92635" ry="6.92635" fill="#E8E8E8"/>
<ellipse cx="18.1573" cy="80.0417" rx="6.92635" ry="6.92635" fill="#E8E8E8"/>
<ellipse cx="51.4202" cy="80.0417" rx="6.92635" ry="6.92635" fill="#E8E8E8"/>
<ellipse cx="84.6513" cy="80.0417" rx="6.92635" ry="6.92635" fill="#E8E8E8"/>
<ellipse cx="117.914" cy="80.0416" rx="6.92635" ry="6.92635" fill="#E8E8E8"/>
<ellipse cx="151.145" cy="80.0417" rx="6.92635" ry="6.92635" fill="#E8E8E8"/>
<ellipse cx="184.409" cy="80.0412" rx="6.92635" ry="6.92635" fill="#E8E8E8"/>
<ellipse cx="217.639" cy="80.0417" rx="6.92635" ry="6.92635" fill="#E8E8E8"/>
<ellipse cx="250.903" cy="80.0412" rx="6.92635" ry="6.92635" fill="#E8E8E8"/>
<ellipse cx="284.134" cy="80.0417" rx="6.92635" ry="6.92635" fill="#E8E8E8"/>
<ellipse cx="317.397" cy="80.0412" rx="6.92635" ry="6.92635" fill="#E8E8E8"/>
<ellipse cx="350.628" cy="80.0417" rx="6.92635" ry="6.92635" fill="#E8E8E8"/>
<ellipse cx="383.891" cy="80.0412" rx="6.92635" ry="6.92635" fill="#E8E8E8"/>
<ellipse cx="417.122" cy="80.0419" rx="6.92635" ry="6.92635" fill="#E8E8E8"/>
<ellipse cx="450.385" cy="80.0412" rx="6.92635" ry="6.92635" fill="#E8E8E8"/>
<ellipse cx="483.616" cy="80.042" rx="6.92635" ry="6.92635" fill="#E8E8E8"/>
<ellipse cx="516.847" cy="80.0412" rx="6.92635" ry="6.92635" fill="#E8E8E8"/>
<ellipse cx="550.11" cy="80.0418" rx="6.92635" ry="6.92635" fill="#E8E8E8"/>
<ellipse cx="583.373" cy="80.0412" rx="6.92635" ry="6.92635" fill="#E8E8E8"/>
<ellipse cx="616.604" cy="80.0419" rx="6.92635" ry="6.92635" fill="#E8E8E8"/>
<ellipse cx="18.1573" cy="113.289" rx="6.92635" ry="6.92635" fill="#E8E8E8"/>
<ellipse cx="51.4202" cy="113.289" rx="6.92635" ry="6.92635" fill="#E8E8E8"/>
<ellipse cx="84.6513" cy="113.289" rx="6.92635" ry="6.92635" fill="#E8E8E8"/>
<ellipse cx="117.914" cy="113.289" rx="6.92635" ry="6.92635" fill="#E8E8E8"/>
<ellipse cx="151.145" cy="113.289" rx="6.92635" ry="6.92635" fill="#E8E8E8"/>
<ellipse cx="184.409" cy="113.288" rx="6.92635" ry="6.92635" fill="#E8E8E8"/>
<ellipse cx="217.639" cy="113.289" rx="6.92635" ry="6.92635" fill="#E8E8E8"/>
<ellipse cx="250.903" cy="113.288" rx="6.92635" ry="6.92635" fill="#E8E8E8"/>
<ellipse cx="284.134" cy="113.289" rx="6.92635" ry="6.92635" fill="#E8E8E8"/>
<ellipse cx="317.397" cy="113.288" rx="6.92635" ry="6.92635" fill="#E8E8E8"/>
<ellipse cx="350.628" cy="113.289" rx="6.92635" ry="6.92635" fill="#E8E8E8"/>
<ellipse cx="383.891" cy="113.288" rx="6.92635" ry="6.92635" fill="#E8E8E8"/>
<ellipse cx="417.122" cy="113.288" rx="6.92635" ry="6.92635" fill="#E8E8E8"/>
<ellipse cx="450.385" cy="113.288" rx="6.92635" ry="6.92635" fill="#E8E8E8"/>
<ellipse cx="483.616" cy="113.288" rx="6.92635" ry="6.92635" fill="#E8E8E8"/>
<ellipse cx="516.847" cy="113.288" rx="6.92635" ry="6.92635" fill="#E8E8E8"/>
<ellipse cx="550.11" cy="113.288" rx="6.92635" ry="6.92635" fill="#E8E8E8"/>
<ellipse cx="583.373" cy="113.288" rx="6.92635" ry="6.92635" fill="#E8E8E8"/>
<ellipse cx="616.604" cy="113.288" rx="6.92635" ry="6.92635" fill="#E8E8E8"/>
<ellipse cx="18.1573" cy="146.535" rx="6.92635" ry="6.92635" fill="#E8E8E8"/>
<ellipse cx="51.4202" cy="146.535" rx="6.92635" ry="6.92635" fill="#E8E8E8"/>
<ellipse cx="84.6513" cy="146.535" rx="6.92635" ry="6.92635" fill="#E8E8E8"/>
<ellipse cx="117.914" cy="146.535" rx="6.92635" ry="6.92635" fill="#E8E8E8"/>
<ellipse cx="151.145" cy="146.535" rx="6.92635" ry="6.92635" fill="#E8E8E8"/>
<ellipse cx="184.409" cy="146.535" rx="6.92635" ry="6.92635" fill="#E8E8E8"/>
<ellipse cx="217.639" cy="146.535" rx="6.92635" ry="6.92635" fill="#E8E8E8"/>
<ellipse cx="250.903" cy="146.535" rx="6.92635" ry="6.92635" fill="#E8E8E8"/>
<ellipse cx="284.134" cy="146.535" rx="6.92635" ry="6.92635" fill="#E8E8E8"/>
<ellipse cx="317.397" cy="146.535" rx="6.92635" ry="6.92635" fill="#E8E8E8"/>
<ellipse cx="350.628" cy="146.536" rx="6.92635" ry="6.92635" fill="#E8E8E8"/>
<ellipse cx="383.891" cy="146.535" rx="6.92635" ry="6.92635" fill="#E8E8E8"/>
<ellipse cx="417.122" cy="146.535" rx="6.92635" ry="6.92635" fill="#E8E8E8"/>
<ellipse cx="450.385" cy="146.535" rx="6.92635" ry="6.92635" fill="#E8E8E8"/>
<ellipse cx="483.616" cy="146.535" rx="6.92635" ry="6.92635" fill="#E8E8E8"/>
<ellipse cx="516.847" cy="146.535" rx="6.92635" ry="6.92635" fill="#E8E8E8"/>
<ellipse cx="550.11" cy="146.535" rx="6.92635" ry="6.92635" fill="#E8E8E8"/>
<ellipse cx="583.373" cy="146.535" rx="6.92635" ry="6.92635" fill="#E8E8E8"/>
<ellipse cx="616.604" cy="146.535" rx="6.92635" ry="6.92635" fill="#E8E8E8"/>
<ellipse cx="18.1573" cy="179.782" rx="6.92635" ry="6.92635" fill="#E8E8E8"/>
<ellipse cx="51.4202" cy="179.781" rx="6.92635" ry="6.92635" fill="#E8E8E8"/>
<ellipse cx="84.6513" cy="179.782" rx="6.92635" ry="6.92635" fill="#E8E8E8"/>
<ellipse cx="117.914" cy="179.782" rx="6.92635" ry="6.92635" fill="#E8E8E8"/>
<ellipse cx="151.145" cy="179.781" rx="6.92635" ry="6.92635" fill="#E8E8E8"/>
<ellipse cx="184.409" cy="179.782" rx="6.92635" ry="6.92635" fill="#E8E8E8"/>
<ellipse cx="217.639" cy="179.781" rx="6.92635" ry="6.92635" fill="#E8E8E8"/>
<ellipse cx="250.903" cy="179.782" rx="6.92635" ry="6.92635" fill="#E8E8E8"/>
<ellipse cx="284.134" cy="179.781" rx="6.92635" ry="6.92635" fill="#E8E8E8"/>
<ellipse cx="317.397" cy="179.782" rx="6.92635" ry="6.92635" fill="#E8E8E8"/>
<ellipse cx="350.628" cy="179.781" rx="6.92635" ry="6.92635" fill="#E8E8E8"/>
<ellipse cx="383.891" cy="179.782" rx="6.92635" ry="6.92635" fill="#E8E8E8"/>
<ellipse cx="417.122" cy="179.781" rx="6.92635" ry="6.92635" fill="#E8E8E8"/>
<ellipse cx="450.385" cy="179.782" rx="6.92635" ry="6.92635" fill="#E8E8E8"/>
<ellipse cx="483.616" cy="179.781" rx="6.92635" ry="6.92635" fill="#E8E8E8"/>
<ellipse cx="516.847" cy="179.782" rx="6.92635" ry="6.92635" fill="#E8E8E8"/>
<ellipse cx="550.11" cy="179.781" rx="6.92635" ry="6.92635" fill="#E8E8E8"/>
<ellipse cx="583.373" cy="179.782" rx="6.92635" ry="6.92635" fill="#E8E8E8"/>
<ellipse cx="616.604" cy="179.781" rx="6.92635" ry="6.92635" fill="#E8E8E8"/>
<ellipse cx="18.1573" cy="213.029" rx="6.92635" ry="6.92635" fill="#E8E8E8"/>
<ellipse cx="51.4202" cy="213.027" rx="6.92635" ry="6.92635" fill="#E8E8E8"/>
<ellipse cx="84.6513" cy="213.029" rx="6.92635" ry="6.92635" fill="#E8E8E8"/>
<ellipse cx="117.914" cy="213.028" rx="6.92635" ry="6.92635" fill="#E8E8E8"/>
<ellipse cx="151.145" cy="213.027" rx="6.92635" ry="6.92635" fill="#E8E8E8"/>
<ellipse cx="184.409" cy="213.029" rx="6.92635" ry="6.92635" fill="#E8E8E8"/>
<ellipse cx="217.639" cy="213.027" rx="6.92635" ry="6.92635" fill="#E8E8E8"/>
<ellipse cx="250.903" cy="213.029" rx="6.92635" ry="6.92635" fill="#E8E8E8"/>
<ellipse cx="284.134" cy="213.027" rx="6.92635" ry="6.92635" fill="#E8E8E8"/>
<ellipse cx="317.397" cy="213.029" rx="6.92635" ry="6.92635" fill="#E8E8E8"/>
<ellipse cx="350.628" cy="213.027" rx="6.92635" ry="6.92635" fill="#E8E8E8"/>
<ellipse cx="383.891" cy="213.029" rx="6.92635" ry="6.92635" fill="#E8E8E8"/>
<ellipse cx="417.122" cy="213.028" rx="6.92635" ry="6.92635" fill="#E8E8E8"/>
<ellipse cx="450.385" cy="213.029" rx="6.92635" ry="6.92635" fill="#E8E8E8"/>
<ellipse cx="483.616" cy="213.028" rx="6.92635" ry="6.92635" fill="#E8E8E8"/>
<ellipse cx="516.847" cy="213.029" rx="6.92635" ry="6.92635" fill="#E8E8E8"/>
<ellipse cx="550.11" cy="213.028" rx="6.92635" ry="6.92635" fill="#E8E8E8"/>
<ellipse cx="583.373" cy="213.029" rx="6.92635" ry="6.92635" fill="#E8E8E8"/>
<ellipse cx="616.604" cy="213.028" rx="6.92635" ry="6.92635" fill="#E8E8E8"/>
<ellipse cx="1294.46" cy="91.0539" rx="6.92635" ry="6.92635" fill="#E8E8E8"/>
<ellipse cx="1327.69" cy="91.0546" rx="6.92635" ry="6.92635" fill="#E8E8E8"/>
<ellipse cx="1360.95" cy="91.056" rx="6.92635" ry="6.92635" fill="#E8E8E8"/>
<ellipse cx="1394.18" cy="91.0546" rx="6.92635" ry="6.92635" fill="#E8E8E8"/>
<ellipse cx="1427.44" cy="91.056" rx="6.92635" ry="6.92635" fill="#E8E8E8"/>
<ellipse cx="1460.67" cy="91.0546" rx="6.92635" ry="6.92635" fill="#E8E8E8"/>
<ellipse cx="1493.94" cy="91.0565" rx="6.92635" ry="6.92635" fill="#E8E8E8"/>
<ellipse cx="1527.17" cy="91.0546" rx="6.92635" ry="6.92635" fill="#E8E8E8"/>
<ellipse cx="1560.43" cy="91.0551" rx="6.92635" ry="6.92635" fill="#E8E8E8"/>
<ellipse cx="1593.66" cy="91.0546" rx="6.92635" ry="6.92635" fill="#E8E8E8"/>
<ellipse cx="1626.93" cy="91.0551" rx="6.92635" ry="6.92635" fill="#E8E8E8"/>
<ellipse cx="1660.16" cy="91.0546" rx="6.92635" ry="6.92635" fill="#E8E8E8"/>
<ellipse cx="1693.42" cy="91.0551" rx="6.92635" ry="6.92635" fill="#E8E8E8"/>
<ellipse cx="1726.65" cy="91.0551" rx="6.92635" ry="6.92635" fill="#E8E8E8"/>
<ellipse cx="1759.91" cy="91.055" rx="6.92635" ry="6.92635" fill="#E8E8E8"/>
<ellipse cx="1793.15" cy="91.0551" rx="6.92635" ry="6.92635" fill="#E8E8E8"/>
<ellipse cx="1826.41" cy="91.0545" rx="6.92635" ry="6.92635" fill="#E8E8E8"/>
<ellipse cx="1859.64" cy="91.0551" rx="6.92635" ry="6.92635" fill="#E8E8E8"/>
<ellipse cx="1892.9" cy="91.0546" rx="6.92635" ry="6.92635" fill="#E8E8E8"/>
<ellipse cx="1926.13" cy="91.0551" rx="6.92635" ry="6.92635" fill="#E8E8E8"/>
<ellipse cx="1294.46" cy="124.302" rx="6.92635" ry="6.92635" fill="#E8E8E8"/>
<ellipse cx="1327.69" cy="124.301" rx="6.92635" ry="6.92635" fill="#E8E8E8"/>
<ellipse cx="1360.95" cy="124.302" rx="6.92635" ry="6.92635" fill="#E8E8E8"/>
<ellipse cx="1394.18" cy="124.301" rx="6.92635" ry="6.92635" fill="#E8E8E8"/>
<ellipse cx="1427.44" cy="124.303" rx="6.92635" ry="6.92635" fill="#E8E8E8"/>
<ellipse cx="1460.67" cy="124.301" rx="6.92635" ry="6.92635" fill="#E8E8E8"/>
<ellipse cx="1493.94" cy="124.302" rx="6.92635" ry="6.92635" fill="#E8E8E8"/>
<ellipse cx="1527.17" cy="124.301" rx="6.92635" ry="6.92635" fill="#E8E8E8"/>
<ellipse cx="1560.43" cy="124.302" rx="6.92635" ry="6.92635" fill="#E8E8E8"/>
<ellipse cx="1593.66" cy="124.301" rx="6.92635" ry="6.92635" fill="#E8E8E8"/>
<ellipse cx="1626.93" cy="124.302" rx="6.92635" ry="6.92635" fill="#E8E8E8"/>
<ellipse cx="1660.16" cy="124.302" rx="6.92635" ry="6.92635" fill="#E8E8E8"/>
<ellipse cx="1693.42" cy="124.302" rx="6.92635" ry="6.92635" fill="#E8E8E8"/>
<ellipse cx="1726.65" cy="124.302" rx="6.92635" ry="6.92635" fill="#E8E8E8"/>
<ellipse cx="1759.91" cy="124.302" rx="6.92635" ry="6.92635" fill="#E8E8E8"/>
<ellipse cx="1793.15" cy="124.302" rx="6.92635" ry="6.92635" fill="#E8E8E8"/>
<ellipse cx="1826.41" cy="124.301" rx="6.92635" ry="6.92635" fill="#E8E8E8"/>
<ellipse cx="1859.64" cy="124.302" rx="6.92635" ry="6.92635" fill="#E8E8E8"/>
<ellipse cx="1892.9" cy="124.301" rx="6.92635" ry="6.92635" fill="#E8E8E8"/>
<ellipse cx="1926.13" cy="124.302" rx="6.92635" ry="6.92635" fill="#E8E8E8"/>
<ellipse cx="1294.46" cy="157.549" rx="6.92635" ry="6.92635" fill="#E8E8E8"/>
<ellipse cx="1327.69" cy="157.548" rx="6.92635" ry="6.92635" fill="#E8E8E8"/>
<ellipse cx="1360.95" cy="157.549" rx="6.92635" ry="6.92635" fill="#E8E8E8"/>
<ellipse cx="1394.18" cy="157.548" rx="6.92635" ry="6.92635" fill="#E8E8E8"/>
<ellipse cx="1427.44" cy="157.549" rx="6.92635" ry="6.92635" fill="#E8E8E8"/>
<ellipse cx="1460.67" cy="157.548" rx="6.92635" ry="6.92635" fill="#E8E8E8"/>
<ellipse cx="1493.94" cy="157.549" rx="6.92635" ry="6.92635" fill="#E8E8E8"/>
<ellipse cx="1527.17" cy="157.548" rx="6.92635" ry="6.92635" fill="#E8E8E8"/>
<ellipse cx="1560.43" cy="157.548" rx="6.92635" ry="6.92635" fill="#E8E8E8"/>
<ellipse cx="1593.66" cy="157.548" rx="6.92635" ry="6.92635" fill="#E8E8E8"/>
<ellipse cx="1626.93" cy="157.549" rx="6.92635" ry="6.92635" fill="#E8E8E8"/>
<ellipse cx="1660.16" cy="157.549" rx="6.92635" ry="6.92635" fill="#E8E8E8"/>
<ellipse cx="1693.42" cy="157.549" rx="6.92635" ry="6.92635" fill="#E8E8E8"/>
<ellipse cx="1726.65" cy="157.549" rx="6.92635" ry="6.92635" fill="#E8E8E8"/>
<ellipse cx="1759.91" cy="157.549" rx="6.92635" ry="6.92635" fill="#E8E8E8"/>
<ellipse cx="1793.15" cy="157.549" rx="6.92635" ry="6.92635" fill="#E8E8E8"/>
<ellipse cx="1826.41" cy="157.548" rx="6.92635" ry="6.92635" fill="#E8E8E8"/>
<ellipse cx="1859.64" cy="157.549" rx="6.92635" ry="6.92635" fill="#E8E8E8"/>
<ellipse cx="1892.9" cy="157.548" rx="6.92635" ry="6.92635" fill="#E8E8E8"/>
<ellipse cx="1926.13" cy="157.549" rx="6.92635" ry="6.92635" fill="#E8E8E8"/>
<ellipse cx="1294.46" cy="190.795" rx="6.92635" ry="6.92635" fill="#E8E8E8"/>
<ellipse cx="1327.69" cy="190.795" rx="6.92635" ry="6.92635" fill="#E8E8E8"/>
<ellipse cx="1360.95" cy="190.795" rx="6.92635" ry="6.92635" fill="#E8E8E8"/>
<ellipse cx="1394.18" cy="190.795" rx="6.92635" ry="6.92635" fill="#E8E8E8"/>
<ellipse cx="1427.44" cy="190.796" rx="6.92635" ry="6.92635" fill="#E8E8E8"/>
<ellipse cx="1460.67" cy="190.795" rx="6.92635" ry="6.92635" fill="#E8E8E8"/>
<ellipse cx="1493.94" cy="190.796" rx="6.92635" ry="6.92635" fill="#E8E8E8"/>
<ellipse cx="1527.17" cy="190.795" rx="6.92635" ry="6.92635" fill="#E8E8E8"/>
<ellipse cx="1560.43" cy="190.795" rx="6.92635" ry="6.92635" fill="#E8E8E8"/>
<ellipse cx="1593.66" cy="190.795" rx="6.92635" ry="6.92635" fill="#E8E8E8"/>
<ellipse cx="1626.93" cy="190.796" rx="6.92635" ry="6.92635" fill="#E8E8E8"/>
<ellipse cx="1660.16" cy="190.796" rx="6.92635" ry="6.92635" fill="#E8E8E8"/>
<ellipse cx="1693.42" cy="190.796" rx="6.92635" ry="6.92635" fill="#E8E8E8"/>
<ellipse cx="1726.65" cy="190.796" rx="6.92635" ry="6.92635" fill="#E8E8E8"/>
<ellipse cx="1759.91" cy="190.796" rx="6.92635" ry="6.92635" fill="#E8E8E8"/>
<ellipse cx="1793.15" cy="190.796" rx="6.92635" ry="6.92635" fill="#E8E8E8"/>
<ellipse cx="1826.41" cy="190.795" rx="6.92635" ry="6.92635" fill="#E8E8E8"/>
<ellipse cx="1859.64" cy="190.796" rx="6.92635" ry="6.92635" fill="#E8E8E8"/>
<ellipse cx="1892.9" cy="190.795" rx="6.92635" ry="6.92635" fill="#E8E8E8"/>
<ellipse cx="1926.13" cy="190.796" rx="6.92635" ry="6.92635" fill="#E8E8E8"/>
<ellipse cx="1294.46" cy="224.042" rx="6.92635" ry="6.92635" fill="#E8E8E8"/>
<ellipse cx="1327.69" cy="224.041" rx="6.92635" ry="6.92635" fill="#E8E8E8"/>
<ellipse cx="1360.95" cy="224.041" rx="6.92635" ry="6.92635" fill="#E8E8E8"/>
<ellipse cx="1394.18" cy="224.041" rx="6.92635" ry="6.92635" fill="#E8E8E8"/>
<ellipse cx="1427.44" cy="224.042" rx="6.92635" ry="6.92635" fill="#E8E8E8"/>
<ellipse cx="1460.67" cy="224.041" rx="6.92635" ry="6.92635" fill="#E8E8E8"/>
<ellipse cx="1493.94" cy="224.042" rx="6.92635" ry="6.92635" fill="#E8E8E8"/>
<ellipse cx="1527.17" cy="224.041" rx="6.92635" ry="6.92635" fill="#E8E8E8"/>
<ellipse cx="1560.43" cy="224.042" rx="6.92635" ry="6.92635" fill="#E8E8E8"/>
<ellipse cx="1593.66" cy="224.041" rx="6.92635" ry="6.92635" fill="#E8E8E8"/>
<ellipse cx="1626.93" cy="224.042" rx="6.92635" ry="6.92635" fill="#E8E8E8"/>
<ellipse cx="1660.16" cy="224.042" rx="6.92635" ry="6.92635" fill="#E8E8E8"/>
<ellipse cx="1693.42" cy="224.042" rx="6.92635" ry="6.92635" fill="#E8E8E8"/>
<ellipse cx="1726.65" cy="224.042" rx="6.92635" ry="6.92635" fill="#E8E8E8"/>
<ellipse cx="1759.91" cy="224.042" rx="6.92635" ry="6.92635" fill="#E8E8E8"/>
<ellipse cx="1793.15" cy="224.042" rx="6.92635" ry="6.92635" fill="#E8E8E8"/>
<ellipse cx="1826.41" cy="224.041" rx="6.92635" ry="6.92635" fill="#E8E8E8"/>
<ellipse cx="1859.64" cy="224.042" rx="6.92635" ry="6.92635" fill="#E8E8E8"/>
<ellipse cx="1892.9" cy="224.041" rx="6.92635" ry="6.92635" fill="#E8E8E8"/>
<ellipse cx="1926.13" cy="224.042" rx="6.92635" ry="6.92635" fill="#E8E8E8"/>
<ellipse cx="1294.46" cy="257.288" rx="6.92635" ry="6.92635" fill="#E8E8E8"/>
<ellipse cx="1327.69" cy="257.288" rx="6.92635" ry="6.92635" fill="#E8E8E8"/>
<ellipse cx="1360.95" cy="257.288" rx="6.92635" ry="6.92635" fill="#E8E8E8"/>
<ellipse cx="1394.18" cy="257.288" rx="6.92635" ry="6.92635" fill="#E8E8E8"/>
<ellipse cx="1427.44" cy="257.288" rx="6.92635" ry="6.92635" fill="#E8E8E8"/>
<ellipse cx="1460.67" cy="257.288" rx="6.92635" ry="6.92635" fill="#E8E8E8"/>
<ellipse cx="1493.94" cy="257.289" rx="6.92635" ry="6.92635" fill="#E8E8E8"/>
<ellipse cx="1527.17" cy="257.288" rx="6.92635" ry="6.92635" fill="#E8E8E8"/>
<ellipse cx="1560.43" cy="257.289" rx="6.92635" ry="6.92635" fill="#E8E8E8"/>
<ellipse cx="1593.66" cy="257.288" rx="6.92635" ry="6.92635" fill="#E8E8E8"/>
<ellipse cx="1626.93" cy="257.289" rx="6.92635" ry="6.92635" fill="#E8E8E8"/>
<ellipse cx="1660.16" cy="257.289" rx="6.92635" ry="6.92635" fill="#E8E8E8"/>
<ellipse cx="1693.42" cy="257.289" rx="6.92635" ry="6.92635" fill="#E8E8E8"/>
<ellipse cx="1726.65" cy="257.289" rx="6.92635" ry="6.92635" fill="#E8E8E8"/>
<ellipse cx="1759.91" cy="257.289" rx="6.92635" ry="6.92635" fill="#E8E8E8"/>
<ellipse cx="1793.15" cy="257.289" rx="6.92635" ry="6.92635" fill="#E8E8E8"/>
<ellipse cx="1826.41" cy="257.288" rx="6.92635" ry="6.92635" fill="#E8E8E8"/>
<ellipse cx="1859.64" cy="257.289" rx="6.92635" ry="6.92635" fill="#E8E8E8"/>
<ellipse cx="1892.9" cy="257.288" rx="6.92635" ry="6.92635" fill="#E8E8E8"/>
<ellipse cx="1926.13" cy="257.289" rx="6.92635" ry="6.92635" fill="#E8E8E8"/>
</g>
<defs>
<clipPath id="clip0_1_152">
<rect width="1920" height="273" fill="white" transform="translate(0 0.5)"/>
</clipPath>
</defs>
</svg>
