<svg width="979" height="281" viewBox="0 0 979 281" fill="none" xmlns="http://www.w3.org/2000/svg">
<ellipse cx="7.12166" cy="7.15395" rx="6.92635" ry="6.92635" fill="#153556"/>
<ellipse cx="40.3524" cy="7.15468" rx="6.92635" ry="6.92635" fill="#153556"/>
<ellipse cx="73.6158" cy="7.15602" rx="6.92635" ry="6.92635" fill="#153556"/>
<ellipse cx="106.847" cy="7.15468" rx="6.92635" ry="6.92635" fill="#153556"/>
<ellipse cx="140.11" cy="7.15602" rx="6.92635" ry="6.92635" fill="#153556"/>
<ellipse cx="173.341" cy="7.15468" rx="6.92635" ry="6.92635" fill="#153556"/>
<ellipse cx="206.604" cy="7.15651" rx="6.92635" ry="6.92635" fill="#153556"/>
<ellipse cx="239.835" cy="7.15468" rx="6.92635" ry="6.92635" fill="#153556"/>
<ellipse cx="273.098" cy="7.15517" rx="6.92635" ry="6.92635" fill="#153556"/>
<ellipse cx="306.329" cy="7.15468" rx="6.92635" ry="6.92635" fill="#153556"/>
<ellipse cx="339.592" cy="7.15517" rx="6.92635" ry="6.92635" fill="#153556"/>
<ellipse cx="372.823" cy="7.15468" rx="6.92635" ry="6.92635" fill="#153556"/>
<ellipse cx="406.086" cy="7.15517" rx="6.92635" ry="6.92635" fill="#153556"/>
<ellipse cx="439.317" cy="7.15517" rx="6.92635" ry="6.92635" fill="#153556"/>
<ellipse cx="472.58" cy="7.15505" rx="6.92635" ry="6.92635" fill="#153556"/>
<ellipse cx="505.811" cy="7.15517" rx="6.92635" ry="6.92635" fill="#153556"/>
<ellipse cx="539.075" cy="7.15456" rx="6.92635" ry="6.92635" fill="#153556"/>
<ellipse cx="572.305" cy="7.15517" rx="6.92635" ry="6.92635" fill="#153556"/>
<ellipse cx="605.569" cy="7.15468" rx="6.92635" ry="6.92635" fill="#153556"/>
<ellipse cx="638.8" cy="7.15517" rx="6.92635" ry="6.92635" fill="#153556"/>
<ellipse cx="672.063" cy="7.15468" rx="6.92635" ry="6.92635" fill="#153556"/>
<ellipse cx="705.294" cy="7.15505" rx="6.92635" ry="6.92635" fill="#153556"/>
<ellipse cx="738.557" cy="7.15468" rx="6.92635" ry="6.92635" fill="#153556"/>
<ellipse cx="771.788" cy="7.15615" rx="6.92635" ry="6.92635" fill="#153556"/>
<ellipse cx="805.051" cy="7.15468" rx="6.92635" ry="6.92635" fill="#153556"/>
<ellipse cx="838.282" cy="7.15602" rx="6.92635" ry="6.92635" fill="#153556"/>
<ellipse cx="871.513" cy="7.15468" rx="6.92635" ry="6.92635" fill="#153556"/>
<ellipse cx="904.776" cy="7.15596" rx="6.92635" ry="6.92635" fill="#153556"/>
<ellipse cx="938.039" cy="7.15468" rx="6.92635" ry="6.92635" fill="#153556"/>
<ellipse cx="971.27" cy="7.15602" rx="6.92635" ry="6.92635" fill="#153556"/>
<ellipse cx="7.12166" cy="40.4024" rx="6.92635" ry="6.92635" fill="#153556"/>
<ellipse cx="40.3524" cy="40.4013" rx="6.92635" ry="6.92635" fill="#153556"/>
<ellipse cx="73.6158" cy="40.4024" rx="6.92635" ry="6.92635" fill="#153556"/>
<ellipse cx="106.847" cy="40.4013" rx="6.92635" ry="6.92635" fill="#153556"/>
<ellipse cx="140.11" cy="40.4027" rx="6.92635" ry="6.92635" fill="#153556"/>
<ellipse cx="173.341" cy="40.4013" rx="6.92635" ry="6.92635" fill="#153556"/>
<ellipse cx="206.604" cy="40.4021" rx="6.92635" ry="6.92635" fill="#153556"/>
<ellipse cx="239.835" cy="40.4013" rx="6.92635" ry="6.92635" fill="#153556"/>
<ellipse cx="273.098" cy="40.4021" rx="6.92635" ry="6.92635" fill="#153556"/>
<ellipse cx="306.329" cy="40.4013" rx="6.92635" ry="6.92635" fill="#153556"/>
<ellipse cx="339.592" cy="40.4021" rx="6.92635" ry="6.92635" fill="#153556"/>
<ellipse cx="372.823" cy="40.4016" rx="6.92635" ry="6.92635" fill="#153556"/>
<ellipse cx="406.086" cy="40.4021" rx="6.92635" ry="6.92635" fill="#153556"/>
<ellipse cx="439.317" cy="40.4021" rx="6.92635" ry="6.92635" fill="#153556"/>
<ellipse cx="472.58" cy="40.402" rx="6.92635" ry="6.92635" fill="#153556"/>
<ellipse cx="505.811" cy="40.4021" rx="6.92635" ry="6.92635" fill="#153556"/>
<ellipse cx="539.075" cy="40.4013" rx="6.92635" ry="6.92635" fill="#153556"/>
<ellipse cx="572.305" cy="40.4021" rx="6.92635" ry="6.92635" fill="#153556"/>
<ellipse cx="605.569" cy="40.4013" rx="6.92635" ry="6.92635" fill="#153556"/>
<ellipse cx="638.8" cy="40.4021" rx="6.92635" ry="6.92635" fill="#153556"/>
<ellipse cx="672.063" cy="40.4013" rx="6.92635" ry="6.92635" fill="#153556"/>
<ellipse cx="705.294" cy="40.4018" rx="6.92635" ry="6.92635" fill="#153556"/>
<ellipse cx="738.557" cy="40.4013" rx="6.92635" ry="6.92635" fill="#153556"/>
<ellipse cx="771.788" cy="40.4029" rx="6.92635" ry="6.92635" fill="#153556"/>
<ellipse cx="805.051" cy="40.4013" rx="6.92635" ry="6.92635" fill="#153556"/>
<ellipse cx="838.282" cy="40.4029" rx="6.92635" ry="6.92635" fill="#153556"/>
<ellipse cx="871.513" cy="40.4013" rx="6.92635" ry="6.92635" fill="#153556"/>
<ellipse cx="904.776" cy="40.4024" rx="6.92635" ry="6.92635" fill="#153556"/>
<ellipse cx="938.039" cy="40.4013" rx="6.92635" ry="6.92635" fill="#153556"/>
<ellipse cx="971.27" cy="40.4027" rx="6.92635" ry="6.92635" fill="#153556"/>
<ellipse cx="7.12166" cy="73.6489" rx="6.92635" ry="6.92635" fill="#153556"/>
<ellipse cx="40.3524" cy="73.6483" rx="6.92635" ry="6.92635" fill="#153556"/>
<ellipse cx="73.6158" cy="73.6489" rx="6.92635" ry="6.92635" fill="#153556"/>
<ellipse cx="106.847" cy="73.6483" rx="6.92635" ry="6.92635" fill="#153556"/>
<ellipse cx="140.11" cy="73.6485" rx="6.92635" ry="6.92635" fill="#153556"/>
<ellipse cx="173.341" cy="73.6483" rx="6.92635" ry="6.92635" fill="#153556"/>
<ellipse cx="206.604" cy="73.6488" rx="6.92635" ry="6.92635" fill="#153556"/>
<ellipse cx="239.835" cy="73.6483" rx="6.92635" ry="6.92635" fill="#153556"/>
<ellipse cx="273.098" cy="73.6484" rx="6.92635" ry="6.92635" fill="#153556"/>
<ellipse cx="306.329" cy="73.6483" rx="6.92635" ry="6.92635" fill="#153556"/>
<ellipse cx="339.592" cy="73.6486" rx="6.92635" ry="6.92635" fill="#153556"/>
<ellipse cx="372.823" cy="73.6486" rx="6.92635" ry="6.92635" fill="#153556"/>
<ellipse cx="406.086" cy="73.6486" rx="6.92635" ry="6.92635" fill="#153556"/>
<ellipse cx="439.317" cy="73.6486" rx="6.92635" ry="6.92635" fill="#153556"/>
<ellipse cx="472.58" cy="73.649" rx="6.92635" ry="6.92635" fill="#153556"/>
<ellipse cx="505.811" cy="73.6486" rx="6.92635" ry="6.92635" fill="#153556"/>
<ellipse cx="539.075" cy="73.6483" rx="6.92635" ry="6.92635" fill="#153556"/>
<ellipse cx="572.305" cy="73.6486" rx="6.92635" ry="6.92635" fill="#153556"/>
<ellipse cx="605.569" cy="73.6483" rx="6.92635" ry="6.92635" fill="#153556"/>
<ellipse cx="638.8" cy="73.6486" rx="6.92635" ry="6.92635" fill="#153556"/>
<ellipse cx="672.063" cy="73.6483" rx="6.92635" ry="6.92635" fill="#153556"/>
<ellipse cx="705.294" cy="73.6486" rx="6.92635" ry="6.92635" fill="#153556"/>
<ellipse cx="738.557" cy="73.6483" rx="6.92635" ry="6.92635" fill="#153556"/>
<ellipse cx="771.788" cy="73.6486" rx="6.92635" ry="6.92635" fill="#153556"/>
<ellipse cx="805.051" cy="73.6483" rx="6.92635" ry="6.92635" fill="#153556"/>
<ellipse cx="838.282" cy="73.6485" rx="6.92635" ry="6.92635" fill="#153556"/>
<ellipse cx="871.513" cy="73.6483" rx="6.92635" ry="6.92635" fill="#153556"/>
<ellipse cx="904.776" cy="73.6489" rx="6.92635" ry="6.92635" fill="#153556"/>
<ellipse cx="938.039" cy="73.6483" rx="6.92635" ry="6.92635" fill="#153556"/>
<ellipse cx="971.27" cy="73.6487" rx="6.92635" ry="6.92635" fill="#153556"/>
<ellipse cx="7.12166" cy="106.895" rx="6.92635" ry="6.92635" fill="#153556"/>
<ellipse cx="40.3524" cy="106.895" rx="6.92635" ry="6.92635" fill="#153556"/>
<ellipse cx="73.6158" cy="106.895" rx="6.92635" ry="6.92635" fill="#153556"/>
<ellipse cx="106.847" cy="106.895" rx="6.92635" ry="6.92635" fill="#153556"/>
<ellipse cx="140.11" cy="106.896" rx="6.92635" ry="6.92635" fill="#153556"/>
<ellipse cx="173.341" cy="106.895" rx="6.92635" ry="6.92635" fill="#153556"/>
<ellipse cx="206.604" cy="106.896" rx="6.92635" ry="6.92635" fill="#153556"/>
<ellipse cx="239.835" cy="106.895" rx="6.92635" ry="6.92635" fill="#153556"/>
<ellipse cx="273.098" cy="106.895" rx="6.92635" ry="6.92635" fill="#153556"/>
<ellipse cx="306.329" cy="106.895" rx="6.92635" ry="6.92635" fill="#153556"/>
<ellipse cx="339.592" cy="106.896" rx="6.92635" ry="6.92635" fill="#153556"/>
<ellipse cx="372.823" cy="106.896" rx="6.92635" ry="6.92635" fill="#153556"/>
<ellipse cx="406.086" cy="106.896" rx="6.92635" ry="6.92635" fill="#153556"/>
<ellipse cx="439.317" cy="106.896" rx="6.92635" ry="6.92635" fill="#153556"/>
<ellipse cx="472.58" cy="106.896" rx="6.92635" ry="6.92635" fill="#153556"/>
<ellipse cx="505.811" cy="106.896" rx="6.92635" ry="6.92635" fill="#153556"/>
<ellipse cx="539.075" cy="106.895" rx="6.92635" ry="6.92635" fill="#153556"/>
<ellipse cx="572.305" cy="106.896" rx="6.92635" ry="6.92635" fill="#153556"/>
<ellipse cx="605.569" cy="106.895" rx="6.92635" ry="6.92635" fill="#153556"/>
<ellipse cx="638.8" cy="106.896" rx="6.92635" ry="6.92635" fill="#153556"/>
<ellipse cx="672.063" cy="106.895" rx="6.92635" ry="6.92635" fill="#153556"/>
<ellipse cx="705.294" cy="106.895" rx="6.92635" ry="6.92635" fill="#153556"/>
<ellipse cx="738.557" cy="106.895" rx="6.92635" ry="6.92635" fill="#153556"/>
<ellipse cx="771.788" cy="106.895" rx="6.92635" ry="6.92635" fill="#153556"/>
<ellipse cx="805.051" cy="106.895" rx="6.92635" ry="6.92635" fill="#153556"/>
<ellipse cx="838.282" cy="106.895" rx="6.92635" ry="6.92635" fill="#153556"/>
<ellipse cx="871.513" cy="106.895" rx="6.92635" ry="6.92635" fill="#153556"/>
<ellipse cx="904.776" cy="106.895" rx="6.92635" ry="6.92635" fill="#153556"/>
<ellipse cx="938.039" cy="106.895" rx="6.92635" ry="6.92635" fill="#153556"/>
<ellipse cx="971.27" cy="106.895" rx="6.92635" ry="6.92635" fill="#153556"/>
<ellipse cx="7.12166" cy="140.142" rx="6.92635" ry="6.92635" fill="#153556"/>
<ellipse cx="40.3524" cy="140.141" rx="6.92635" ry="6.92635" fill="#153556"/>
<ellipse cx="73.6158" cy="140.141" rx="6.92635" ry="6.92635" fill="#153556"/>
<ellipse cx="106.847" cy="140.141" rx="6.92635" ry="6.92635" fill="#153556"/>
<ellipse cx="140.11" cy="140.142" rx="6.92635" ry="6.92635" fill="#153556"/>
<ellipse cx="173.341" cy="140.141" rx="6.92635" ry="6.92635" fill="#153556"/>
<ellipse cx="206.604" cy="140.142" rx="6.92635" ry="6.92635" fill="#153556"/>
<ellipse cx="239.835" cy="140.141" rx="6.92635" ry="6.92635" fill="#153556"/>
<ellipse cx="273.098" cy="140.142" rx="6.92635" ry="6.92635" fill="#153556"/>
<ellipse cx="306.329" cy="140.141" rx="6.92635" ry="6.92635" fill="#153556"/>
<ellipse cx="339.592" cy="140.142" rx="6.92635" ry="6.92635" fill="#153556"/>
<ellipse cx="372.823" cy="140.142" rx="6.92635" ry="6.92635" fill="#153556"/>
<ellipse cx="406.086" cy="140.142" rx="6.92635" ry="6.92635" fill="#153556"/>
<ellipse cx="439.317" cy="140.142" rx="6.92635" ry="6.92635" fill="#153556"/>
<ellipse cx="472.58" cy="140.142" rx="6.92635" ry="6.92635" fill="#153556"/>
<ellipse cx="505.811" cy="140.142" rx="6.92635" ry="6.92635" fill="#153556"/>
<ellipse cx="539.075" cy="140.141" rx="6.92635" ry="6.92635" fill="#153556"/>
<ellipse cx="572.305" cy="140.142" rx="6.92635" ry="6.92635" fill="#153556"/>
<ellipse cx="605.569" cy="140.141" rx="6.92635" ry="6.92635" fill="#153556"/>
<ellipse cx="638.8" cy="140.142" rx="6.92635" ry="6.92635" fill="#153556"/>
<ellipse cx="672.063" cy="140.141" rx="6.92635" ry="6.92635" fill="#153556"/>
<ellipse cx="705.294" cy="140.142" rx="6.92635" ry="6.92635" fill="#153556"/>
<ellipse cx="738.557" cy="140.141" rx="6.92635" ry="6.92635" fill="#153556"/>
<ellipse cx="771.788" cy="140.142" rx="6.92635" ry="6.92635" fill="#153556"/>
<ellipse cx="805.051" cy="140.141" rx="6.92635" ry="6.92635" fill="#153556"/>
<ellipse cx="838.282" cy="140.142" rx="6.92635" ry="6.92635" fill="#153556"/>
<ellipse cx="871.513" cy="140.141" rx="6.92635" ry="6.92635" fill="#153556"/>
<ellipse cx="904.776" cy="140.142" rx="6.92635" ry="6.92635" fill="#153556"/>
<ellipse cx="938.039" cy="140.141" rx="6.92635" ry="6.92635" fill="#153556"/>
<ellipse cx="971.27" cy="140.142" rx="6.92635" ry="6.92635" fill="#153556"/>
<ellipse cx="7.12166" cy="173.388" rx="6.92635" ry="6.92635" fill="#153556"/>
<ellipse cx="40.3524" cy="173.388" rx="6.92635" ry="6.92635" fill="#153556"/>
<ellipse cx="73.6158" cy="173.388" rx="6.92635" ry="6.92635" fill="#153556"/>
<ellipse cx="106.847" cy="173.388" rx="6.92635" ry="6.92635" fill="#153556"/>
<ellipse cx="140.11" cy="173.388" rx="6.92635" ry="6.92635" fill="#153556"/>
<ellipse cx="173.341" cy="173.388" rx="6.92635" ry="6.92635" fill="#153556"/>
<ellipse cx="206.604" cy="173.389" rx="6.92635" ry="6.92635" fill="#153556"/>
<ellipse cx="239.835" cy="173.388" rx="6.92635" ry="6.92635" fill="#153556"/>
<ellipse cx="273.098" cy="173.389" rx="6.92635" ry="6.92635" fill="#153556"/>
<ellipse cx="306.329" cy="173.388" rx="6.92635" ry="6.92635" fill="#153556"/>
<ellipse cx="339.592" cy="173.389" rx="6.92635" ry="6.92635" fill="#153556"/>
<ellipse cx="372.823" cy="173.389" rx="6.92635" ry="6.92635" fill="#153556"/>
<ellipse cx="406.086" cy="173.389" rx="6.92635" ry="6.92635" fill="#153556"/>
<ellipse cx="439.317" cy="173.389" rx="6.92635" ry="6.92635" fill="#153556"/>
<ellipse cx="472.58" cy="173.389" rx="6.92635" ry="6.92635" fill="#153556"/>
<ellipse cx="505.811" cy="173.389" rx="6.92635" ry="6.92635" fill="#153556"/>
<ellipse cx="539.075" cy="173.388" rx="6.92635" ry="6.92635" fill="#153556"/>
<ellipse cx="572.305" cy="173.389" rx="6.92635" ry="6.92635" fill="#153556"/>
<ellipse cx="605.569" cy="173.388" rx="6.92635" ry="6.92635" fill="#153556"/>
<ellipse cx="638.8" cy="173.389" rx="6.92635" ry="6.92635" fill="#153556"/>
<ellipse cx="672.063" cy="173.388" rx="6.92635" ry="6.92635" fill="#153556"/>
<ellipse cx="705.294" cy="173.389" rx="6.92635" ry="6.92635" fill="#153556"/>
<ellipse cx="738.557" cy="173.388" rx="6.92635" ry="6.92635" fill="#153556"/>
<ellipse cx="771.788" cy="173.388" rx="6.92635" ry="6.92635" fill="#153556"/>
<ellipse cx="805.051" cy="173.388" rx="6.92635" ry="6.92635" fill="#153556"/>
<ellipse cx="838.282" cy="173.388" rx="6.92635" ry="6.92635" fill="#153556"/>
<ellipse cx="871.513" cy="173.388" rx="6.92635" ry="6.92635" fill="#153556"/>
<ellipse cx="904.776" cy="173.388" rx="6.92635" ry="6.92635" fill="#153556"/>
<ellipse cx="938.039" cy="173.388" rx="6.92635" ry="6.92635" fill="#153556"/>
<ellipse cx="971.27" cy="173.388" rx="6.92635" ry="6.92635" fill="#153556"/>
<ellipse cx="7.12166" cy="206.635" rx="6.92635" ry="6.92635" fill="#153556"/>
<ellipse cx="40.3524" cy="206.635" rx="6.92635" ry="6.92635" fill="#153556"/>
<ellipse cx="73.6158" cy="206.635" rx="6.92635" ry="6.92635" fill="#153556"/>
<ellipse cx="106.847" cy="206.635" rx="6.92635" ry="6.92635" fill="#153556"/>
<ellipse cx="140.11" cy="206.635" rx="6.92635" ry="6.92635" fill="#153556"/>
<ellipse cx="173.341" cy="206.635" rx="6.92635" ry="6.92635" fill="#153556"/>
<ellipse cx="206.604" cy="206.634" rx="6.92635" ry="6.92635" fill="#153556"/>
<ellipse cx="239.835" cy="206.635" rx="6.92635" ry="6.92635" fill="#153556"/>
<ellipse cx="273.098" cy="206.635" rx="6.92635" ry="6.92635" fill="#153556"/>
<ellipse cx="306.329" cy="206.635" rx="6.92635" ry="6.92635" fill="#153556"/>
<ellipse cx="339.592" cy="206.635" rx="6.92635" ry="6.92635" fill="#153556"/>
<ellipse cx="372.823" cy="206.635" rx="6.92635" ry="6.92635" fill="#153556"/>
<ellipse cx="406.086" cy="206.635" rx="6.92635" ry="6.92635" fill="#153556"/>
<ellipse cx="439.317" cy="206.635" rx="6.92635" ry="6.92635" fill="#153556"/>
<ellipse cx="472.58" cy="206.635" rx="6.92635" ry="6.92635" fill="#153556"/>
<ellipse cx="505.811" cy="206.635" rx="6.92635" ry="6.92635" fill="#153556"/>
<ellipse cx="539.075" cy="206.635" rx="6.92635" ry="6.92635" fill="#153556"/>
<ellipse cx="572.305" cy="206.635" rx="6.92635" ry="6.92635" fill="#153556"/>
<ellipse cx="605.569" cy="206.635" rx="6.92635" ry="6.92635" fill="#153556"/>
<ellipse cx="638.8" cy="206.635" rx="6.92635" ry="6.92635" fill="#153556"/>
<ellipse cx="672.063" cy="206.635" rx="6.92635" ry="6.92635" fill="#153556"/>
<ellipse cx="705.294" cy="206.636" rx="6.92635" ry="6.92635" fill="#153556"/>
<ellipse cx="738.557" cy="206.635" rx="6.92635" ry="6.92635" fill="#153556"/>
<ellipse cx="771.788" cy="206.635" rx="6.92635" ry="6.92635" fill="#153556"/>
<ellipse cx="805.051" cy="206.635" rx="6.92635" ry="6.92635" fill="#153556"/>
<ellipse cx="838.282" cy="206.635" rx="6.92635" ry="6.92635" fill="#153556"/>
<ellipse cx="871.513" cy="206.635" rx="6.92635" ry="6.92635" fill="#153556"/>
<ellipse cx="904.776" cy="206.635" rx="6.92635" ry="6.92635" fill="#153556"/>
<ellipse cx="938.039" cy="206.635" rx="6.92635" ry="6.92635" fill="#153556"/>
<ellipse cx="971.27" cy="206.635" rx="6.92635" ry="6.92635" fill="#153556"/>
<ellipse cx="7.12166" cy="239.881" rx="6.92635" ry="6.92635" fill="#153556"/>
<ellipse cx="40.3524" cy="239.882" rx="6.92635" ry="6.92635" fill="#153556"/>
<ellipse cx="73.6158" cy="239.881" rx="6.92635" ry="6.92635" fill="#153556"/>
<ellipse cx="106.847" cy="239.882" rx="6.92635" ry="6.92635" fill="#153556"/>
<ellipse cx="140.11" cy="239.881" rx="6.92635" ry="6.92635" fill="#153556"/>
<ellipse cx="173.341" cy="239.882" rx="6.92635" ry="6.92635" fill="#153556"/>
<ellipse cx="206.604" cy="239.881" rx="6.92635" ry="6.92635" fill="#153556"/>
<ellipse cx="239.835" cy="239.882" rx="6.92635" ry="6.92635" fill="#153556"/>
<ellipse cx="273.098" cy="239.881" rx="6.92635" ry="6.92635" fill="#153556"/>
<ellipse cx="306.329" cy="239.882" rx="6.92635" ry="6.92635" fill="#153556"/>
<ellipse cx="339.592" cy="239.881" rx="6.92635" ry="6.92635" fill="#153556"/>
<ellipse cx="372.823" cy="239.882" rx="6.92635" ry="6.92635" fill="#153556"/>
<ellipse cx="406.086" cy="239.881" rx="6.92635" ry="6.92635" fill="#153556"/>
<ellipse cx="439.317" cy="239.882" rx="6.92635" ry="6.92635" fill="#153556"/>
<ellipse cx="472.58" cy="239.882" rx="6.92635" ry="6.92635" fill="#153556"/>
<ellipse cx="505.811" cy="239.881" rx="6.92635" ry="6.92635" fill="#153556"/>
<ellipse cx="539.075" cy="239.882" rx="6.92635" ry="6.92635" fill="#153556"/>
<ellipse cx="572.305" cy="239.881" rx="6.92635" ry="6.92635" fill="#153556"/>
<ellipse cx="605.569" cy="239.882" rx="6.92635" ry="6.92635" fill="#153556"/>
<ellipse cx="638.8" cy="239.881" rx="6.92635" ry="6.92635" fill="#153556"/>
<ellipse cx="672.063" cy="239.882" rx="6.92635" ry="6.92635" fill="#153556"/>
<ellipse cx="705.294" cy="239.881" rx="6.92635" ry="6.92635" fill="#153556"/>
<ellipse cx="738.557" cy="239.882" rx="6.92635" ry="6.92635" fill="#153556"/>
<ellipse cx="771.788" cy="239.881" rx="6.92635" ry="6.92635" fill="#153556"/>
<ellipse cx="805.051" cy="239.882" rx="6.92635" ry="6.92635" fill="#153556"/>
<ellipse cx="838.282" cy="239.881" rx="6.92635" ry="6.92635" fill="#153556"/>
<ellipse cx="871.513" cy="239.882" rx="6.92635" ry="6.92635" fill="#153556"/>
<ellipse cx="904.776" cy="239.881" rx="6.92635" ry="6.92635" fill="#153556"/>
<ellipse cx="938.039" cy="239.882" rx="6.92635" ry="6.92635" fill="#153556"/>
<ellipse cx="971.27" cy="239.881" rx="6.92635" ry="6.92635" fill="#153556"/>
<ellipse cx="7.12166" cy="273.128" rx="6.92635" ry="6.92635" fill="#153556"/>
<ellipse cx="40.3524" cy="273.129" rx="6.92635" ry="6.92635" fill="#153556"/>
<ellipse cx="73.6158" cy="273.128" rx="6.92635" ry="6.92635" fill="#153556"/>
<ellipse cx="106.847" cy="273.129" rx="6.92635" ry="6.92635" fill="#153556"/>
<ellipse cx="140.11" cy="273.128" rx="6.92635" ry="6.92635" fill="#153556"/>
<ellipse cx="173.341" cy="273.129" rx="6.92635" ry="6.92635" fill="#153556"/>
<ellipse cx="206.604" cy="273.128" rx="6.92635" ry="6.92635" fill="#153556"/>
<ellipse cx="239.835" cy="273.129" rx="6.92635" ry="6.92635" fill="#153556"/>
<ellipse cx="273.098" cy="273.127" rx="6.92635" ry="6.92635" fill="#153556"/>
<ellipse cx="306.329" cy="273.129" rx="6.92635" ry="6.92635" fill="#153556"/>
<ellipse cx="339.592" cy="273.127" rx="6.92635" ry="6.92635" fill="#153556"/>
<ellipse cx="372.823" cy="273.129" rx="6.92635" ry="6.92635" fill="#153556"/>
<ellipse cx="406.086" cy="273.127" rx="6.92635" ry="6.92635" fill="#153556"/>
<ellipse cx="439.317" cy="273.129" rx="6.92635" ry="6.92635" fill="#153556"/>
<ellipse cx="472.58" cy="273.128" rx="6.92635" ry="6.92635" fill="#153556"/>
<ellipse cx="505.811" cy="273.127" rx="6.92635" ry="6.92635" fill="#153556"/>
<ellipse cx="539.075" cy="273.129" rx="6.92635" ry="6.92635" fill="#153556"/>
<ellipse cx="572.305" cy="273.127" rx="6.92635" ry="6.92635" fill="#153556"/>
<ellipse cx="605.569" cy="273.129" rx="6.92635" ry="6.92635" fill="#153556"/>
<ellipse cx="638.8" cy="273.127" rx="6.92635" ry="6.92635" fill="#153556"/>
<ellipse cx="672.063" cy="273.129" rx="6.92635" ry="6.92635" fill="#153556"/>
<ellipse cx="705.294" cy="273.127" rx="6.92635" ry="6.92635" fill="#153556"/>
<ellipse cx="738.557" cy="273.129" rx="6.92635" ry="6.92635" fill="#153556"/>
<ellipse cx="771.788" cy="273.128" rx="6.92635" ry="6.92635" fill="#153556"/>
<ellipse cx="805.051" cy="273.129" rx="6.92635" ry="6.92635" fill="#153556"/>
<ellipse cx="838.282" cy="273.128" rx="6.92635" ry="6.92635" fill="#153556"/>
<ellipse cx="871.513" cy="273.129" rx="6.92635" ry="6.92635" fill="#153556"/>
<ellipse cx="904.776" cy="273.128" rx="6.92635" ry="6.92635" fill="#153556"/>
<ellipse cx="938.039" cy="273.129" rx="6.92635" ry="6.92635" fill="#153556"/>
<ellipse cx="971.27" cy="273.128" rx="6.92635" ry="6.92635" fill="#153556"/>
</svg>
